<svg width="26" height="24" viewBox="0 0 26 24" fill="none" xmlns="http://www.w3.org/2000/svg">
<path d="M21.4997 14.5C22.052 14.5 22.4997 14.9477 22.4997 15.5V18H24.9997C25.552 18 25.9997 18.4477 25.9997 19V19.3333C25.9997 19.8856 25.552 20.3333 24.9997 20.3333H22.4997V22.8333C22.4997 23.3856 22.052 23.8333 21.4997 23.8333H21.1663C20.6141 23.8333 20.1663 23.3856 20.1663 22.8333V20.3333H17.6663C17.1141 20.3333 16.6663 19.8856 16.6663 19.3333V19C16.6663 18.4477 17.1141 18 17.6663 18H20.1663V15.5C20.1663 14.9477 20.6141 14.5 21.1663 14.5H21.4997ZM22.509 0.5C23.1483 0.5 23.6663 1.01917 23.6663 1.6585V11.1667C23.6663 11.719 23.2186 12.1667 22.6663 12.1667H22.333C21.7807 12.1667 21.333 11.719 21.333 11.1667V2.83333H2.66634V19.1655L13.6259 8.20704C14.0164 7.81655 14.6496 7.81656 15.0401 8.20707L17.5401 10.7071C17.7276 10.8946 17.833 11.149 17.833 11.4142V11.8863C17.833 12.7772 16.7559 13.2234 16.1259 12.5934L14.333 10.8005L5.96451 19.1667H13.333C13.8853 19.1667 14.333 19.6144 14.333 20.1667V20.5C14.333 21.0523 13.8853 21.5 13.333 21.5H1.49034C1.18329 21.4997 0.888921 21.3775 0.671912 21.1603C0.454904 20.943 0.333008 20.6486 0.333008 20.3415V1.6585C0.335143 1.35211 0.457725 1.05885 0.674273 0.842087C0.890821 0.625321 1.18395 0.502444 1.49034 0.5H22.509ZM7.33301 5.16667C7.95185 5.16667 8.54534 5.4125 8.98292 5.85008C9.42051 6.28767 9.66634 6.88116 9.66634 7.5C9.66634 8.11884 9.42051 8.71233 8.98292 9.14992C8.54534 9.5875 7.95185 9.83333 7.33301 9.83333C6.71417 9.83333 6.12068 9.5875 5.68309 9.14992C5.24551 8.71233 4.99967 8.11884 4.99967 7.5C4.99967 6.88116 5.24551 6.28767 5.68309 5.85008C6.12068 5.4125 6.71417 5.16667 7.33301 5.16667Z" fill="#91969E"/>
</svg>
