<svg width="16" height="17" viewBox="0 0 16 17" fill="none" xmlns="http://www.w3.org/2000/svg">
<path d="M8.83333 8.50033H11.3333L8 11.8337L4.66667 8.50033H7.16667V6.00033C7.16667 5.54009 7.53976 5.16699 8 5.16699C8.46024 5.16699 8.83333 5.54009 8.83333 6.00033V8.50033ZM10.5 1.83366H2.16667V15.167H13.8333V5.16699H10.5V1.83366ZM0.5 0.993659C0.5 0.536992 0.8725 0.166992 1.3325 0.166992H11.3333L15.5 4.33366V15.9945C15.5008 16.1039 15.48 16.2124 15.4388 16.3138C15.3976 16.4152 15.3369 16.5075 15.2601 16.5855C15.1832 16.6634 15.0918 16.7254 14.991 16.768C14.8902 16.8106 14.7819 16.8329 14.6725 16.8337H1.3275C1.10865 16.8321 0.899181 16.7446 0.744348 16.5899C0.589515 16.4352 0.501746 16.2258 0.5 16.007V0.993659Z" fill="#91969E"/>
</svg>
