<svg width="28" height="21" viewBox="0 0 28 21" fill="none" xmlns="http://www.w3.org/2000/svg">
<path d="M21.2882 7.57881C21.9694 7.57881 22.5217 7.01327 22.5217 6.31565C22.5217 5.61803 21.9694 5.05249 21.2882 5.05249C20.6069 5.05249 20.0547 5.61803 20.0547 6.31565C20.0547 7.01327 20.6069 7.57881 21.2882 7.57881Z" fill="#292929"/>
<path d="M7.44607 1.89446C7.59781 1.89446 7.71993 1.78203 7.71993 1.64186V0.883952C7.71993 0.745004 7.59781 0.631348 7.44607 0.631348H5.52674C5.37505 0.631348 5.25293 0.743778 5.25293 0.883952V1.64186C5.25293 1.7808 5.37505 1.89446 5.52674 1.89446H7.44607Z" fill="#292929"/>
<path d="M14.5049 16.4211C17.5701 16.4211 20.0557 13.8757 20.0557 10.7368C20.0557 7.59779 17.5701 5.05249 14.5049 5.05249C11.4396 5.05249 8.9541 7.59779 8.9541 10.7368C8.9541 13.8757 11.4396 16.4211 14.5049 16.4211ZM14.5049 6.31569C16.8892 6.31569 18.8221 8.29507 18.8221 10.7368C18.8221 13.1784 16.8892 15.1579 14.5049 15.1579C12.1205 15.1579 10.1876 13.1784 10.1876 10.7368C10.1876 8.29507 12.1205 6.31569 14.5049 6.31569Z" fill="#292929"/>
<path d="M0.319336 5.05264V17.6844C0.319336 20.2107 2.78633 20.2107 2.78633 20.2107H24.9894C24.9894 20.2107 27.4565 20.2107 27.4565 17.6844V5.05264C27.4565 2.52632 24.9894 2.52632 24.9894 2.52632H20.3021L18.9921 0.291791C18.8984 0.130094 18.6714 0 18.4938 0H10.5155C10.3342 0 10.1084 0.135179 10.0171 0.291791L8.70715 2.52632H2.78633C2.78633 2.52627 0.319336 2.52627 0.319336 5.05264ZM9.53856 3.78948L10.9127 1.26311H17.9782L19.541 3.78948H24.9759C24.9759 3.78948 26.2229 3.78948 26.2229 5.07538V17.6603C26.2229 18.9475 24.9759 18.9475 24.9759 18.9475H2.7999C2.7999 18.9475 1.55283 18.9475 1.55283 17.6603V5.07538C1.55283 3.78948 2.7999 3.78948 2.7999 3.78948H9.53856Z" fill="#292929"/>
</svg>
