<svg width="25" height="24" viewBox="0 0 25 24" fill="none" xmlns="http://www.w3.org/2000/svg">
<path d="M7.37264 17.129C5.52764 15.819 4.06764 14.115 3.24264 13.039C3.01195 12.742 2.88672 12.3766 2.88672 12.0005C2.88672 11.6244 3.01195 11.259 3.24264 10.962C4.73564 9.013 8.31765 5 12.4996 5C14.3756 5 16.1296 5.807 17.6296 6.874" stroke="#91969E" stroke-width="2" stroke-linecap="round" stroke-linejoin="round"/>
<path d="M14.629 9.887C14.3513 9.60467 14.0204 9.38011 13.6555 9.22628C13.2906 9.07246 12.8988 8.99241 12.5028 8.99075C12.1068 8.98909 11.7144 9.06586 11.3482 9.21662C10.982 9.36738 10.6492 9.58916 10.3692 9.86915C10.0891 10.1491 9.86725 10.4818 9.7164 10.848C9.56555 11.2142 9.48869 11.6066 9.49026 12.0026C9.49182 12.3986 9.57178 12.7904 9.72552 13.1554C9.87926 13.5203 10.1037 13.8512 10.386 14.129" stroke="#91969E" stroke-width="2" stroke-linecap="round" stroke-linejoin="round"/>
<path d="M4.5 20L20.5 4" stroke="#91969E" stroke-width="2" stroke-linecap="round" stroke-linejoin="round"/>
<path d="M10.5 18.704C11.1492 18.8972 11.8227 18.9969 12.5 19C16.682 19 20.264 14.987 21.757 13.038C21.9876 12.7407 22.1127 12.3751 22.1125 11.9988C22.1124 11.6226 21.9869 11.2571 21.756 10.96C21.2313 10.2755 20.6684 9.62112 20.07 9" stroke="#91969E" stroke-width="2" stroke-linecap="round" stroke-linejoin="round"/>
</svg>
