<svg width="26" height="27" viewBox="0 0 26 27" fill="none" xmlns="http://www.w3.org/2000/svg">
<path d="M13.2059 26.3921C11.3759 26.3921 9.65297 26.0594 8.03694 25.394C6.44468 24.7286 5.05442 23.8136 3.86616 22.6491C2.67791 21.4609 1.73918 20.0825 1.04999 18.514C0.384571 16.9217 0.0518589 15.2106 0.0518589 13.3807C0.0518589 11.5508 0.396453 9.8516 1.08564 8.2831C1.77483 6.7146 2.72544 5.3481 3.93746 4.18361C5.17324 2.99536 6.61103 2.0804 8.25083 1.43874C9.89062 0.773318 11.6492 0.440606 13.5267 0.440606C15.6893 0.440606 17.6499 0.832731 19.4086 1.61698C21.1909 2.40123 22.6644 3.48254 23.8289 4.86092L20.0146 8.67522C19.2066 7.62956 18.2559 6.84531 17.1628 6.32247C16.0696 5.79964 14.8338 5.53823 13.4554 5.53823C11.982 5.53823 10.663 5.87094 9.4985 6.53636C8.33401 7.17802 7.41905 8.09298 6.75363 9.28123C6.11197 10.4457 5.79114 11.8122 5.79114 13.3807C5.79114 14.9492 6.11197 16.3276 6.75363 17.5158C7.39528 18.7041 8.27459 19.6309 9.39155 20.2964C10.5085 20.9618 11.7918 21.2945 13.2415 21.2945C14.7149 21.2945 15.9626 21.0212 16.9845 20.4746C18.0302 19.9042 18.8263 19.0962 19.3729 18.0506C19.9433 16.9811 20.2285 15.6859 20.2285 14.165L23.9358 16.6603L12.7068 16.4821V11.7409H25.9321V12.5608C25.9321 15.579 25.3855 18.1219 24.2923 20.1894C23.2229 22.2332 21.7257 23.778 19.8007 24.8236C17.8995 25.8693 15.7012 26.3921 13.2059 26.3921Z" fill="white"/>
</svg>
