<svg width="22" height="20" viewBox="0 0 22 20" fill="none" xmlns="http://www.w3.org/2000/svg">
<path d="M12.0113 2.11183L12.0114 2.11175C13.0429 1.07979 14.4422 0.5 15.9013 0.5C17.3604 0.5 18.7596 1.07976 19.7911 2.11167L19.7913 2.11181C20.8232 3.14334 21.4031 4.54278 21.4031 6.00183C21.4031 7.46093 20.8233 8.86023 19.7914 9.89175L19.7913 9.89182L10.9513 18.7318L2.11129 9.89183C-0.037097 7.74344 -0.0370968 4.26021 2.11129 2.11183C4.25968 -0.036562 7.7429 -0.0365622 9.89129 2.11183L10.5977 2.81827C10.793 3.01353 11.1096 3.01353 11.3048 2.81827L12.0113 2.11183Z" fill="#F53B49" stroke="#F53B49" stroke-linecap="round" stroke-linejoin="round"/>
</svg>
