<svg width="18" height="18" viewBox="0 0 18 18" fill="none" xmlns="http://www.w3.org/2000/svg">
<path d="M13.158 6.27268L10.4311 8.99991L13.158 11.727C13.5636 12.1328 13.5636 12.7901 13.158 13.1959C12.9553 13.3985 12.6896 13.5 12.424 13.5C12.158 13.5 11.8923 13.3987 11.6898 13.1959L8.96223 10.4685L6.2349 13.1958C6.03226 13.3985 5.76652 13.4999 5.5007 13.4999C5.23497 13.4999 4.96941 13.3987 4.76659 13.1958C4.36097 12.7903 4.36097 12.1329 4.76659 11.727L7.49346 8.99989L4.76643 6.27268C4.36081 5.86706 4.36081 5.2096 4.76643 4.80398C5.17198 4.39867 5.82905 4.39867 6.23474 4.80398L8.96221 7.53122L11.6895 4.80398C12.0952 4.39867 12.7524 4.39867 13.1578 4.80398C13.5636 5.2096 13.5636 5.86706 13.158 6.27268Z" fill="#858FA4"/>
<rect x="0.5625" y="0.5625" width="16.875" height="16.8751" rx="8.4375" stroke="#909CB5" stroke-opacity="0.3" stroke-width="1.125"/>
</svg>
