<svg width="19" height="16" viewBox="0 0 19 16" fill="none" xmlns="http://www.w3.org/2000/svg">
<path d="M17.167 1.56783C15.1368 -0.522327 11.8342 -0.522327 9.80457 1.56783L9.33316 2.05302L8.86202 1.56783C6.83243 -0.52261 3.52952 -0.52261 1.49992 1.56783C-0.488469 3.61555 -0.501381 6.8614 1.46998 9.11819C3.26799 11.1758 8.57083 15.6212 8.79582 15.8094C8.94856 15.9372 9.13234 15.9995 9.31503 15.9995C9.32107 15.9995 9.32712 15.9995 9.33289 15.9992C9.52189 16.0082 9.71227 15.9415 9.86996 15.8094C10.0949 15.6212 15.3983 11.1758 17.1969 9.11791C19.168 6.8614 19.1551 3.61555 17.167 1.56783ZM15.9717 7.98258C14.5698 9.58641 10.7164 12.8942 9.33289 14.068C7.94942 12.8945 4.09681 9.58698 2.69521 7.98287C1.31998 6.40874 1.30707 4.16694 2.66527 2.76823C3.35892 2.05416 4.26988 1.69684 5.18084 1.69684C6.09179 1.69684 7.00275 2.05387 7.69641 2.76823L8.73263 3.83537C8.85598 3.9624 9.01147 4.03822 9.17465 4.06481C9.43948 4.12338 9.72683 4.04727 9.93287 3.83565L10.9696 2.76823C12.3572 1.3398 14.6143 1.34008 16.0011 2.76823C17.3593 4.16694 17.3463 6.40874 15.9717 7.98258Z" fill="#909CB5"/>
</svg>
