<svg width="32" height="32" viewBox="0 0 32 32" fill="none" xmlns="http://www.w3.org/2000/svg">
<rect width="32" height="32" rx="2" fill="#909CB5"/>
<path d="M20.583 10.5007H25.1663V12.334H23.333V24.2507C23.333 24.4938 23.2364 24.7269 23.0645 24.8988C22.8926 25.0707 22.6595 25.1673 22.4163 25.1673H9.58301C9.33989 25.1673 9.10674 25.0707 8.93483 24.8988C8.76292 24.7269 8.66634 24.4938 8.66634 24.2507V12.334H6.83301V10.5007H11.4163V7.75065C11.4163 7.50754 11.5129 7.27438 11.6848 7.10247C11.8567 6.93056 12.0899 6.83398 12.333 6.83398H19.6663C19.9095 6.83398 20.1426 6.93056 20.3145 7.10247C20.4864 7.27438 20.583 7.50754 20.583 7.75065V10.5007ZM21.4997 12.334H10.4997V23.334H21.4997V12.334ZM13.2497 15.084H15.083V20.584H13.2497V15.084ZM16.9163 15.084H18.7497V20.584H16.9163V15.084ZM13.2497 8.66732V10.5007H18.7497V8.66732H13.2497Z" fill="white"/>
</svg>
