<svg width="222" height="39" viewBox="0 0 222 39" fill="none" xmlns="http://www.w3.org/2000/svg">
<path d="M42.5993 32.4746C41.8776 32.4746 41.2128 32.2942 40.6049 31.9333C40.0161 31.5724 39.5413 31.0975 39.1804 30.5087C38.8385 29.9199 38.6675 29.2646 38.6675 28.5428V22.3317H51.7166V20.0239C51.7166 19.9289 51.6786 19.8529 51.6026 19.796C51.5456 19.72 51.4696 19.682 51.3747 19.682H38.6675V15.9496H51.5171C52.2389 15.9496 52.8942 16.1301 53.483 16.491C54.0909 16.8518 54.5657 17.3267 54.9076 17.9155C55.2685 18.5043 55.4489 19.1596 55.4489 19.8814V32.4746H42.5993ZM42.7418 28.7422H51.7166V25.6937H42.3999V28.4003C42.3999 28.4953 42.4284 28.5808 42.4854 28.6568C42.5613 28.7137 42.6468 28.7422 42.7418 28.7422ZM62.1255 32.4746C61.3847 32.4746 60.7199 32.2942 60.1311 31.9333C59.5423 31.5724 59.0674 31.0975 58.7065 30.5087C58.3646 29.9199 58.1937 29.2646 58.1937 28.5428V19.8814C58.1937 19.1596 58.3646 18.5043 58.7065 17.9155C59.0674 17.3267 59.5423 16.8518 60.1311 16.491C60.7199 16.1301 61.3847 15.9496 62.1255 15.9496H71.2712V10.5363H75.0036V32.4746H62.1255ZM62.2964 28.7422H70.9293C71.0243 28.7422 71.1003 28.7137 71.1573 28.6568C71.2332 28.5808 71.2712 28.4953 71.2712 28.4003V20.0239C71.2712 19.9289 71.2332 19.8529 71.1573 19.796C71.1003 19.72 71.0243 19.682 70.9293 19.682H62.2964C62.2015 19.682 62.116 19.72 62.04 19.796C61.983 19.8529 61.9545 19.9289 61.9545 20.0239V28.4003C61.9545 28.4953 61.983 28.5808 62.04 28.6568C62.116 28.7137 62.2015 28.7422 62.2964 28.7422ZM81.0435 38.9991V35.2383H90.987C91.082 35.2383 91.158 35.2003 91.2149 35.1243C91.2909 35.0673 91.3289 34.9913 91.3289 34.8964V32.4746H82.2117C81.5089 32.4746 80.8536 32.2942 80.2458 31.9333C79.657 31.5724 79.1821 31.0975 78.8212 30.5087C78.4603 29.9199 78.2799 29.2646 78.2799 28.5428V19.8814C78.2799 19.1596 78.4603 18.5043 78.8212 17.9155C79.1821 17.3267 79.657 16.8518 80.2458 16.491C80.8536 16.1301 81.5089 15.9496 82.2117 15.9496H91.158C91.8797 15.9496 92.535 16.1301 93.1239 16.491C93.7127 16.8518 94.1781 17.3267 94.5199 17.9155C94.8808 18.5043 95.0613 19.1596 95.0613 19.8814V35.0673C95.0613 35.8081 94.8903 36.4729 94.5484 37.0617C94.2065 37.6505 93.7317 38.1159 93.1239 38.4578C92.535 38.8187 91.8797 38.9991 91.158 38.9991H81.0435ZM82.3541 28.7422H90.987C91.082 28.7422 91.158 28.7137 91.2149 28.6568C91.2909 28.5808 91.3289 28.4953 91.3289 28.4003V20.0239C91.3289 19.9289 91.2909 19.8529 91.2149 19.796C91.158 19.72 91.082 19.682 90.987 19.682H82.3541C82.2592 19.682 82.1737 19.72 82.0977 19.796C82.0407 19.8529 82.0122 19.9289 82.0122 20.0239V28.4003C82.0122 28.4953 82.0407 28.5808 82.0977 28.6568C82.1737 28.7137 82.2592 28.7422 82.3541 28.7422ZM101.931 32.4746C101.209 32.4746 100.554 32.2942 99.9649 31.9333C99.3761 31.5724 98.9012 31.0975 98.5403 30.5087C98.1795 29.9199 97.999 29.2646 97.999 28.5428V19.8814C97.999 19.1596 98.1795 18.5043 98.5403 17.9155C98.9012 17.3267 99.3761 16.8518 99.9649 16.491C100.554 16.1301 101.209 15.9496 101.931 15.9496H110.849C111.57 15.9496 112.226 16.1301 112.815 16.491C113.422 16.8518 113.897 17.3267 114.239 17.9155C114.6 18.5043 114.78 19.1596 114.78 19.8814V26.0925H101.731V28.4003C101.731 28.4953 101.76 28.5808 101.817 28.6568C101.893 28.7137 101.978 28.7422 102.073 28.7422H114.78V32.4746H101.931ZM101.731 22.7306H111.048V20.0239C111.048 19.9289 111.01 19.8529 110.934 19.796C110.877 19.72 110.801 19.682 110.706 19.682H102.073C101.978 19.682 101.893 19.72 101.817 19.796C101.76 19.8529 101.731 19.9289 101.731 20.0239V22.7306ZM122.285 32.4746C121.563 32.4746 120.907 32.2942 120.319 31.9333C119.73 31.5724 119.255 31.0975 118.894 30.5087C118.533 29.9199 118.353 29.2646 118.353 28.5428V10.8782H122.085V15.9496H128.524V19.682H122.085V28.4003C122.085 28.4953 122.114 28.5808 122.171 28.6568C122.247 28.7137 122.332 28.7422 122.427 28.7422H128.524V32.4746H122.285ZM135.903 32.4746C135.181 32.4746 134.516 32.2942 133.909 31.9333C133.32 31.5724 132.845 31.0975 132.484 30.5087C132.142 29.9199 131.971 29.2646 131.971 28.5428V22.3317H145.02V20.0239C145.02 19.9289 144.982 19.8529 144.906 19.796C144.849 19.72 144.773 19.682 144.678 19.682H131.971V15.9496H144.821C145.543 15.9496 146.198 16.1301 146.787 16.491C147.394 16.8518 147.869 17.3267 148.211 17.9155C148.572 18.5043 148.753 19.1596 148.753 19.8814V32.4746H135.903ZM136.045 28.7422H145.02V25.6937H135.704V28.4003C135.704 28.4953 135.732 28.5808 135.789 28.6568C135.865 28.7137 135.95 28.7422 136.045 28.7422ZM151.739 32.4746V19.8814C151.739 19.1596 151.92 18.5043 152.281 17.9155C152.642 17.3267 153.116 16.8518 153.705 16.491C154.313 16.1301 154.968 15.9496 155.671 15.9496H164.845V19.682H155.814C155.719 19.682 155.633 19.72 155.557 19.796C155.5 19.8529 155.472 19.9289 155.472 20.0239V32.4746H151.739ZM167.584 32.4746V15.9496H171.317V32.4746H167.584ZM167.584 14.2971V10.5363H171.317V14.2971H167.584ZM178.43 32.4746C177.709 32.4746 177.044 32.2942 176.436 31.9333C175.847 31.5724 175.372 31.0975 175.011 30.5087C174.669 29.9199 174.499 29.2646 174.499 28.5428V15.9496H178.231V28.4003C178.231 28.4953 178.259 28.5808 178.316 28.6568C178.392 28.7137 178.478 28.7422 178.573 28.7422H187.206C187.301 28.7422 187.377 28.7137 187.434 28.6568C187.51 28.5808 187.548 28.4953 187.548 28.4003V15.9496H191.28V28.5428C191.28 29.2646 191.099 29.9199 190.739 30.5087C190.397 31.0975 189.931 31.5724 189.343 31.9333C188.754 32.2942 188.089 32.4746 187.348 32.4746H178.43ZM194.212 32.4746V15.9496H214.697C215.438 15.9496 216.103 16.1301 216.691 16.491C217.28 16.8518 217.746 17.3267 218.087 17.9155C218.448 18.5043 218.629 19.1596 218.629 19.8814V32.4746H214.925V20.0239C214.925 19.9289 214.887 19.8529 214.811 19.796C214.735 19.72 214.649 19.682 214.554 19.682H208.657C208.562 19.682 208.476 19.72 208.4 19.796C208.343 19.8529 208.315 19.9289 208.315 20.0239V32.4746H204.554V20.0239C204.554 19.9289 204.516 19.8529 204.44 19.796C204.383 19.72 204.307 19.682 204.212 19.682H198.286C198.191 19.682 198.105 19.72 198.03 19.796C197.973 19.8529 197.944 19.9289 197.944 20.0239V32.4746H194.212Z" fill="white"/>
<rect x="-6.67572e-05" y="2.18066" width="34.6546" height="34.9" fill="#CB11AB"/>
<path d="M17.3248 32.3526C15.6794 32.3526 14.1302 32.0534 12.6772 31.4551C11.2455 30.8568 9.99542 30.0341 8.92699 28.987C7.85857 27.9186 7.01451 26.6792 6.39482 25.2689C5.7965 23.8372 5.49734 22.2987 5.49734 20.6533C5.49734 19.0079 5.80719 17.4801 6.42687 16.0698C7.04656 14.6594 7.9013 13.4308 8.9911 12.3837C10.1023 11.3153 11.3951 10.4926 12.8695 9.91563C14.3439 9.31731 15.9252 9.01815 17.6133 9.01815C19.5578 9.01815 21.3207 9.37073 22.902 10.0759C24.5046 10.7811 25.8295 11.7533 26.8766 12.9927L23.4469 16.4223C22.7204 15.4821 21.8656 14.777 20.8827 14.3069C19.8997 13.8368 18.7886 13.6017 17.5492 13.6017C16.2243 13.6017 15.0384 13.9009 13.9913 14.4992C12.9443 15.0761 12.1216 15.8988 11.5233 16.9672C10.9463 18.0143 10.6578 19.243 10.6578 20.6533C10.6578 22.0636 10.9463 23.303 11.5233 24.3714C12.1002 25.4399 12.8909 26.2732 13.8952 26.8716C14.8995 27.4699 16.0534 27.769 17.3569 27.769C18.6817 27.769 19.8036 27.5233 20.7224 27.0318C21.6626 26.519 22.3785 25.7924 22.87 24.8522C23.3828 23.8906 23.6392 22.7261 23.6392 21.3585L26.9727 23.6022L16.8761 23.4419V19.1789H28.7677V19.9161C28.7677 22.6299 28.2762 24.9163 27.2932 26.7754C26.3317 28.6131 24.9854 30.002 23.2546 30.9423C21.5451 31.8825 19.5685 32.3526 17.3248 32.3526Z" fill="white"/>
</svg>
