<svg width="25" height="23" viewBox="0 0 25 23" fill="none" xmlns="http://www.w3.org/2000/svg">
<path fill-rule="evenodd" clip-rule="evenodd" d="M11.8721 4.64948V20.6876L8.49705 20.6876C8.18639 20.6876 7.93454 20.9395 7.93454 21.2501C7.93454 21.5608 8.18639 21.8126 8.49705 21.8126H16.3721C16.6828 21.8126 16.9346 21.5608 16.9346 21.2501C16.9346 20.9395 16.6828 20.6876 16.3721 20.6876L12.9971 20.6876V4.4146C13.0389 4.41741 13.0805 4.4249 13.1211 4.43706L18.0923 5.92844L14.6348 13.4786C14.3026 14.2039 14.5933 15.123 15.413 15.4153C17.2357 16.0652 20.3151 16.6201 23.1186 15.4121C23.8493 15.0973 24.1048 14.2694 23.8472 13.5944L20.794 5.59367L23.2575 5.04622C23.5608 4.97883 23.752 4.67835 23.6846 4.37509C23.6172 4.07182 23.3167 3.88061 23.0135 3.948L18.7864 4.88735C18.6925 4.90821 18.5949 4.90466 18.5028 4.87702L13.4443 3.3595C13.2985 3.31574 13.148 3.29212 12.9971 3.28875V1.5625C12.9971 1.25184 12.7452 1 12.4346 1C12.1239 1 11.8721 1.25184 11.8721 1.5625V3.49491L5.95224 4.86102C5.82482 4.89042 5.69115 4.87452 5.57419 4.81604L3.06416 3.56102C2.78629 3.42209 2.44841 3.53472 2.30948 3.81258C2.17055 4.09045 2.28317 4.42833 2.56104 4.56726L4.72102 5.64725L1.13467 13.4786C0.802545 14.2039 1.09321 15.123 1.91289 15.4153C3.73558 16.0652 6.81501 16.6201 9.61851 15.4121C10.3492 15.0973 10.6048 14.2694 10.3472 13.5944L7.3333 5.69689L11.8721 4.64948ZM6.34959 5.9239L9.41288 13.951C9.50606 14.1951 9.3956 14.4193 9.22279 14.4938C6.74917 15.5596 3.95736 15.0826 2.24873 14.4734C2.0487 14.402 1.92525 14.154 2.04387 13.895L5.66276 5.99254C5.84298 6.01003 6.02615 5.99854 6.2052 5.95722L6.34959 5.9239ZM19.8073 5.81293L19.1814 5.95203L15.544 13.895C15.4253 14.154 15.5488 14.402 15.7488 14.4734C17.4574 15.0826 20.2493 15.5596 22.7229 14.4938C22.8957 14.4193 23.0061 14.1951 22.913 13.951L19.8073 5.81293Z" fill="white"/>
<path d="M11.8721 20.6876V21.1876H12.3721V20.6876H11.8721ZM11.8721 4.64948H12.3721V4.02096L11.7596 4.16229L11.8721 4.64948ZM8.49705 20.6876V21.1876H8.49705L8.49705 20.6876ZM16.3721 20.6876V21.1876V20.6876ZM12.9971 20.6876H12.4971V21.1876H12.9971V20.6876ZM12.9971 4.4146L13.0305 3.91572L12.4971 3.87994V4.4146H12.9971ZM13.1211 4.43706L12.9774 4.91597L12.9774 4.91597L13.1211 4.43706ZM18.0923 5.92844L18.5469 6.13662L18.786 5.61453L18.236 5.44953L18.0923 5.92844ZM14.6348 13.4786L14.1802 13.2704L14.6348 13.4786ZM15.413 15.4153L15.2451 15.8862L15.413 15.4153ZM23.1186 15.4121L23.3165 15.8713L23.1186 15.4121ZM23.8472 13.5944L24.3144 13.4161V13.4161L23.8472 13.5944ZM20.794 5.59367L20.6855 5.10558L20.1205 5.23115L20.3268 5.77194L20.794 5.59367ZM23.2575 5.04622L23.1491 4.55813L23.2575 5.04622ZM23.6846 4.37509L23.1965 4.48355L23.6846 4.37509ZM23.0135 3.948L22.905 3.45991L23.0135 3.948ZM18.7864 4.88735L18.6779 4.39926V4.39926L18.7864 4.88735ZM18.5028 4.87702L18.6464 4.39811L18.5028 4.87702ZM13.4443 3.3595L13.3007 3.83841H13.3007L13.4443 3.3595ZM12.9971 3.28875H12.4971V3.77772L12.9859 3.78862L12.9971 3.28875ZM11.8721 3.49491L11.9845 3.9821L12.3721 3.89266V3.49491H11.8721ZM5.95224 4.86102L5.83981 4.37383L5.95224 4.86102ZM3.06416 3.56102L3.28777 3.11381L3.06416 3.56102ZM2.56104 4.56726L2.33743 5.01447H2.33743L2.56104 4.56726ZM4.72102 5.64725L5.17562 5.85543L5.3768 5.41612L4.94463 5.20004L4.72102 5.64725ZM1.13467 13.4786L1.58927 13.6868H1.58927L1.13467 13.4786ZM1.91289 15.4153L1.74497 15.8862H1.74497L1.91289 15.4153ZM9.61851 15.4121L9.81637 15.8713L9.61851 15.4121ZM10.3472 13.5944L10.8143 13.4161L10.3472 13.5944ZM7.3333 5.69689L7.22087 5.20969L6.66146 5.33879L6.86616 5.87516L7.3333 5.69689ZM6.34959 5.9239L6.81673 5.74563L6.66147 5.33879L6.23716 5.4367L6.34959 5.9239ZM9.41288 13.951L8.94574 14.1292L9.41288 13.951ZM9.22279 14.4938L9.42065 14.9529L9.22279 14.4938ZM2.24873 14.4734L2.41665 14.0024H2.41665L2.24873 14.4734ZM2.04387 13.895L1.58927 13.6868H1.58927L2.04387 13.895ZM5.66276 5.99254L5.71106 5.49488L5.35649 5.46047L5.20816 5.78436L5.66276 5.99254ZM6.2052 5.95722L6.31763 6.44441H6.31763L6.2052 5.95722ZM19.8073 5.81293L20.2745 5.63466L20.1205 5.23115L19.6989 5.32484L19.8073 5.81293ZM19.1814 5.95203L19.0729 5.46393L18.8303 5.51785L18.7268 5.74384L19.1814 5.95203ZM15.544 13.895L15.9986 14.1032V14.1032L15.544 13.895ZM15.7488 14.4734L15.5809 14.9443L15.7488 14.4734ZM22.7229 14.4938L22.9207 14.9529H22.9207L22.7229 14.4938ZM22.913 13.951L23.3801 13.7727V13.7727L22.913 13.951ZM12.3721 20.6876V4.64948H11.3721V20.6876H12.3721ZM8.49705 21.1876L11.8721 21.1876V20.1876L8.49705 20.1876L8.49705 21.1876ZM8.43454 21.2501C8.43454 21.2156 8.46253 21.1876 8.49705 21.1876V20.1876C7.91024 20.1876 7.43454 20.6633 7.43454 21.2501H8.43454ZM8.49705 21.3126C8.46253 21.3126 8.43454 21.2846 8.43454 21.2501H7.43454C7.43454 21.8369 7.91024 22.3126 8.49705 22.3126V21.3126ZM16.3721 21.3126H8.49705V22.3126H16.3721V21.3126ZM16.4346 21.2501C16.4346 21.2846 16.4066 21.3126 16.3721 21.3126V22.3126C16.9589 22.3126 17.4346 21.8369 17.4346 21.2501H16.4346ZM16.3721 21.1876C16.4066 21.1876 16.4346 21.2156 16.4346 21.2501H17.4346C17.4346 20.6633 16.9589 20.1876 16.3721 20.1876V21.1876ZM12.9971 21.1876L16.3721 21.1876V20.1876L12.9971 20.1876V21.1876ZM12.4971 4.4146V20.6876H13.4971V4.4146H12.4971ZM13.2647 3.95815C13.1882 3.93518 13.1096 3.92102 13.0305 3.91572L12.9636 4.91348C12.9683 4.91379 12.9729 4.91462 12.9774 4.91597L13.2647 3.95815ZM18.236 5.44953L13.2647 3.95815L12.9774 4.91597L17.9487 6.40735L18.236 5.44953ZM17.6377 5.72026L14.1802 13.2704L15.0894 13.6868L18.5469 6.13662L17.6377 5.72026ZM14.1802 13.2704C13.7432 14.2246 14.1115 15.4821 15.2451 15.8862L15.5809 14.9443C15.0751 14.764 14.8621 14.1831 15.0894 13.6868L14.1802 13.2704ZM15.2451 15.8862C17.1247 16.5564 20.348 17.1504 23.3165 15.8713L22.9207 14.9529C20.2822 16.0899 17.3466 15.5739 15.5809 14.9443L15.2451 15.8862ZM23.3165 15.8713C24.3293 15.4349 24.6528 14.3031 24.3144 13.4161L23.3801 13.7727C23.5568 14.2358 23.3693 14.7596 22.9207 14.9529L23.3165 15.8713ZM24.3144 13.4161L21.2611 5.4154L20.3268 5.77194L23.3801 13.7727L24.3144 13.4161ZM23.1491 4.55813L20.6855 5.10558L20.9025 6.08177L23.366 5.53431L23.1491 4.55813ZM23.1965 4.48355C23.204 4.51725 23.1828 4.55064 23.1491 4.55813L23.366 5.53431C23.9388 5.40702 24.3 4.83945 24.1727 4.26662L23.1965 4.48355ZM23.1219 4.4361C23.1556 4.42861 23.189 4.44985 23.1965 4.48355L24.1727 4.26662C24.0454 3.69379 23.4778 3.33261 22.905 3.45991L23.1219 4.4361ZM18.8949 5.37545L23.1219 4.4361L22.905 3.45991L18.6779 4.39926L18.8949 5.37545ZM18.3591 5.35594C18.5331 5.40814 18.7175 5.41485 18.8949 5.37544L18.6779 4.39926C18.6675 4.40158 18.6567 4.40118 18.6464 4.39811L18.3591 5.35594ZM13.3007 3.83841L18.3591 5.35594L18.6464 4.39811L13.588 2.88058L13.3007 3.83841ZM12.9859 3.78862C13.0922 3.791 13.198 3.80762 13.3007 3.83841L13.588 2.88058C13.3989 2.82387 13.2039 2.79324 13.0082 2.78887L12.9859 3.78862ZM12.4971 1.5625V3.28875H13.4971V1.5625H12.4971ZM12.4346 1.5C12.4691 1.5 12.4971 1.52798 12.4971 1.5625H13.4971C13.4971 0.9757 13.0214 0.5 12.4346 0.5V1.5ZM12.3721 1.5625C12.3721 1.52798 12.4001 1.5 12.4346 1.5V0.5C11.8478 0.5 11.3721 0.975699 11.3721 1.5625H12.3721ZM12.3721 3.49491V1.5625H11.3721V3.49491H12.3721ZM6.06467 5.34822L11.9845 3.9821L11.7596 3.00771L5.83981 4.37383L6.06467 5.34822ZM5.35059 5.26326C5.5715 5.37371 5.824 5.40376 6.06467 5.34822L5.83981 4.37383C5.82565 4.37709 5.8108 4.37533 5.7978 4.36883L5.35059 5.26326ZM2.84055 4.00824L5.35059 5.26326L5.7978 4.36883L3.28777 3.11381L2.84055 4.00824ZM2.75669 4.03619C2.77213 4.00532 2.80968 3.9928 2.84055 4.00824L3.28777 3.11381C2.76291 2.85138 2.12469 3.06412 1.86227 3.58898L2.75669 4.03619ZM2.78465 4.12005C2.75377 4.10461 2.74126 4.06707 2.75669 4.03619L1.86227 3.58898C1.59984 4.11383 1.81258 4.75205 2.33743 5.01447L2.78465 4.12005ZM4.94463 5.20004L2.78465 4.12005L2.33743 5.01447L4.49741 6.09446L4.94463 5.20004ZM4.26642 5.43907L0.680075 13.2704L1.58927 13.6868L5.17562 5.85543L4.26642 5.43907ZM0.680075 13.2704C0.243112 14.2246 0.611417 15.4821 1.74497 15.8862L2.08081 14.9443C1.575 14.764 1.36198 14.1831 1.58927 13.6868L0.680075 13.2704ZM1.74497 15.8862C3.6246 16.5564 6.84788 17.1504 9.81637 15.8713L9.42065 14.9529C6.78215 16.0899 3.84656 15.5739 2.08081 14.9443L1.74497 15.8862ZM9.81637 15.8713C10.8292 15.4349 11.1528 14.3031 10.8143 13.4161L9.88002 13.7727C10.0568 14.2358 9.86924 14.7596 9.42065 14.9529L9.81637 15.8713ZM10.8143 13.4161L7.80044 5.51862L6.86616 5.87516L9.88002 13.7727L10.8143 13.4161ZM11.7596 4.16229L7.22087 5.20969L7.44573 6.18409L11.9845 5.13668L11.7596 4.16229ZM5.88245 6.10217L8.94574 14.1292L9.88002 13.7727L6.81673 5.74563L5.88245 6.10217ZM8.94574 14.1292C8.95214 14.146 8.92976 14.0756 9.02493 14.0346L9.42065 14.9529C9.86144 14.763 10.06 14.2442 9.88002 13.7727L8.94574 14.1292ZM9.02493 14.0346C6.71619 15.0294 4.06815 14.5912 2.41665 14.0024L2.08081 14.9443C3.84657 15.5739 6.78215 16.0899 9.42065 14.9529L9.02493 14.0346ZM2.41665 14.0024C2.45957 14.0177 2.48239 14.0471 2.49148 14.07C2.50267 14.0981 2.49386 14.1132 2.49847 14.1032L1.58927 13.6868C1.35737 14.1932 1.58497 14.7675 2.08081 14.9443L2.41665 14.0024ZM2.49847 14.1032L6.11736 6.20073L5.20816 5.78436L1.58927 13.6868L2.49847 14.1032ZM6.09278 5.47002C5.96677 5.4991 5.83788 5.50719 5.71106 5.49488L5.61447 6.49021C5.84807 6.51288 6.08553 6.49798 6.31763 6.44441L6.09278 5.47002ZM6.23716 5.4367L6.09278 5.47002L6.31763 6.44441L6.46202 6.4111L6.23716 5.4367ZM19.6989 5.32484L19.0729 5.46393L19.2899 6.44012L19.9158 6.30103L19.6989 5.32484ZM15.9986 14.1032L19.636 6.16021L18.7268 5.74384L15.0894 13.6868L15.9986 14.1032ZM15.9167 14.0024C15.9597 14.0177 15.9825 14.0471 15.9916 14.07C16.0028 14.0981 15.9939 14.1132 15.9986 14.1032L15.0894 13.6868C14.8575 14.1932 15.085 14.7675 15.5809 14.9443L15.9167 14.0024ZM22.525 14.0346C20.2163 15.0294 17.5682 14.5912 15.9167 14.0024L15.5809 14.9443C17.3467 15.5739 20.2822 16.0898 22.9207 14.9529L22.525 14.0346ZM22.4458 14.1292C22.4522 14.146 22.4298 14.0756 22.525 14.0346L22.9207 14.9529C23.3615 14.763 23.5601 14.2442 23.3801 13.7727L22.4458 14.1292ZM19.3402 5.9912L22.4458 14.1292L23.3801 13.7727L20.2745 5.63466L19.3402 5.9912Z" fill="white"/>
</svg>
