<svg width="84" height="17" viewBox="0 0 84 17" fill="none" xmlns="http://www.w3.org/2000/svg">
<path d="M7.56 0.939453L9.96846 5.18449L14.75 6.16328L11.457 9.76566L12.0037 14.6156L7.56 12.597L3.11634 14.6156L3.66303 9.76566L0.370013 6.16328L5.15154 5.18449L7.56 0.939453Z" fill="#F99808"/>
<path d="M25.1996 0.939453L27.6081 5.18449L32.3896 6.16328L29.0966 9.76566L29.6433 14.6156L25.1996 12.597L20.756 14.6156L21.3027 9.76566L18.0097 6.16328L22.7912 5.18449L25.1996 0.939453Z" fill="#F99808"/>
<path d="M42.2103 0.939453L44.418 5.18449L48.8011 6.16328L45.7825 9.76566L46.2836 14.6156L42.2103 12.597L38.1369 14.6156L38.638 9.76566L35.6195 6.16328L40.0025 5.18449L42.2103 0.939453Z" fill="#F99808"/>
<path d="M58.5902 0.939453L60.7979 5.18449L65.181 6.16328L62.1624 9.76566L62.6635 14.6156L58.5902 12.597L54.5168 14.6156L55.0179 9.76566L51.9993 6.16328L56.3824 5.18449L58.5902 0.939453Z" fill="#F99808"/>
<path d="M75.6 0.939453L78.0085 5.18449L82.79 6.16328L79.497 9.76566L80.0437 14.6156L75.6 12.597L71.1564 14.6156L71.7031 9.76566L68.4101 6.16328L73.1916 5.18449L75.6 0.939453Z" fill="#F99808"/>
</svg>
