<svg width="64" height="45" viewBox="0 0 64 45" fill="none" xmlns="http://www.w3.org/2000/svg">
<path d="M36.583 16.5007H41.1663V18.334H39.333V30.2507C39.333 30.4938 39.2364 30.7269 39.0645 30.8988C38.8926 31.0707 38.6595 31.1673 38.4163 31.1673H25.583C25.3399 31.1673 25.1067 31.0707 24.9348 30.8988C24.7629 30.7269 24.6663 30.4938 24.6663 30.2507V18.334H22.833V16.5007H27.4163V13.7507C27.4163 13.5075 27.5129 13.2744 27.6848 13.1025C27.8567 12.9306 28.0899 12.834 28.333 12.834H35.6663C35.9095 12.834 36.1426 12.9306 36.3145 13.1025C36.4864 13.2744 36.583 13.5075 36.583 13.7507V16.5007ZM37.4997 18.334H26.4997V29.334H37.4997V18.334ZM29.2497 21.084H31.083V26.584H29.2497V21.084ZM32.9163 21.084H34.7497V26.584H32.9163V21.084ZM29.2497 14.6673V16.5007H34.7497V14.6673H29.2497Z" fill="#91969E"/>
<rect x="0.5" y="0.5" width="63" height="44" rx="3.5" stroke="#91969E"/>
</svg>
