<svg width="20" height="21" viewBox="0 0 20 21" fill="none" xmlns="http://www.w3.org/2000/svg">
<path d="M14.8457 19.0639C15.3887 18.9507 15.9041 18.7298 16.3611 18.4137C16.8663 18.0642 17.2877 17.607 17.5949 17.075L17.7248 16.85H17.465H15C14.5093 16.85 14.0388 16.6551 13.6919 16.3081C13.3449 15.9612 13.15 15.4907 13.15 15V11C13.15 10.5093 13.3449 10.0388 13.6919 9.69185C14.0388 9.34491 14.5093 9.15 15 9.15H17.938H18.1081L18.0868 8.98121C17.8382 7.01187 16.8795 5.20092 15.3906 3.88816C13.9017 2.57541 11.985 1.85108 10 1.85108C8.01502 1.85108 6.09826 2.57541 4.60937 3.88816C3.12048 5.20092 2.16179 7.01187 1.91318 8.98121L1.89187 9.15H2.062H5C5.49065 9.15 5.96121 9.34491 6.30815 9.69185C6.65509 10.0388 6.85 10.5093 6.85 11V15C6.85 15.4907 6.65509 15.9612 6.30815 16.3081C5.96121 16.6551 5.49065 16.85 5 16.85H2C1.50935 16.85 1.03879 16.6551 0.691852 16.3081C0.34491 15.9612 0.15 15.4907 0.15 15V10C0.15 4.55984 4.55984 0.15 10 0.15C15.4402 0.15 19.85 4.55984 19.85 10V15.002C19.85 15.002 19.85 15.002 19.85 15.002C19.8496 16.3354 19.3938 17.6286 18.5581 18.6676C17.7507 19.6716 16.6353 20.38 15.3861 20.685L14.8457 19.0639ZM18 15.15H18.15V15V11V10.85H18H15H14.85V11V15V15.15H15H18ZM2 10.85H1.85V11V15V15.15H2H5H5.15V15V11V10.85H5H2Z" fill="#91969E" fill-opacity="0.8" stroke="white" stroke-width="0.3"/>
</svg>
