<svg width="14" height="20" viewBox="0 0 14 20" fill="none" xmlns="http://www.w3.org/2000/svg">
<path d="M11.9021 6.62716L11.9058 6.64862L11.9181 6.66658C12.5904 7.64828 12.9501 8.81028 12.9501 10.0001C12.9501 11.1899 12.5904 12.3519 11.9181 13.3336L11.9058 13.3516L11.9021 13.373L10.9021 19.143L10.9019 19.1441C10.8674 19.3571 10.7576 19.5505 10.5924 19.6893C10.4272 19.8281 10.2176 19.9029 10.0019 19.9001H10.0006L4.00063 19.9001L3.99934 19.9001C3.78362 19.9029 3.57408 19.8281 3.40888 19.6893C3.24369 19.5505 3.13384 19.3571 3.09935 19.1441L3.09916 19.143L2.09916 13.373L2.09544 13.3516L2.08314 13.3336C1.4109 12.3519 1.05117 11.1899 1.05117 10.0001C1.05117 8.81028 1.4109 7.64828 2.08314 6.66658L2.09544 6.64862L2.09916 6.62716L3.09916 0.857159L3.09916 0.85716L3.09934 0.856075C3.13384 0.643112 3.24369 0.449627 3.40888 0.310866C3.57408 0.172104 3.78362 0.0972981 3.99934 0.100075V0.100083H4.00063L10.0006 0.100091L10.0019 0.100075C10.2176 0.0972981 10.4272 0.172104 10.5924 0.310866C10.7576 0.449627 10.8674 0.643112 10.9019 0.856076L10.9021 0.857159L11.9021 6.62716ZM4.85063 1.90008H4.76618L4.75204 1.98333L4.31204 4.57333L4.27972 4.76359L4.45379 4.68029C5.2489 4.29979 6.11916 4.10228 7.00063 4.10228C7.88209 4.10228 8.75235 4.29979 9.54746 4.68029L9.72154 4.76359L9.68921 4.57333L9.24921 1.98333L9.23507 1.90008H9.15063H4.85063ZM9.15063 18.1001H9.23507L9.24921 18.0168L9.68921 15.4268L9.72154 15.2366L9.54746 15.3199C8.75235 15.7004 7.88209 15.8979 7.00063 15.8979C6.11916 15.8979 5.2489 15.7004 4.45379 15.3199L4.27972 15.2366L4.31204 15.4268L4.75204 18.0168L4.76618 18.1001H4.85063H9.15063ZM4.72279 13.4091C5.39703 13.8596 6.18972 14.1001 7.00063 14.1001C8.08801 14.1001 9.13087 13.6681 9.89977 12.8992C10.6687 12.1303 11.1006 11.0875 11.1006 10.0001C11.1006 9.18918 10.8602 8.39649 10.4097 7.72225C9.95914 7.048 9.31881 6.5225 8.56963 6.21218C7.82045 5.90186 6.99608 5.82066 6.20076 5.97886C5.40543 6.13706 4.67488 6.52755 4.10149 7.10094C3.52809 7.67434 3.13761 8.40489 2.97941 9.20021C2.82121 9.99553 2.9024 10.8199 3.21272 11.5691C3.52304 12.3183 4.04855 12.9586 4.72279 13.4091Z" fill="#91969E" fill-opacity="0.8" stroke="white" stroke-width="0.2"/>
</svg>
