<svg width="70" height="70" viewBox="0 0 70 70" fill="none" xmlns="http://www.w3.org/2000/svg">
<path d="M42.6509 52.674C41.4347 52.6727 40.2686 52.189 39.4085 51.3291C38.5484 50.4692 38.0645 49.3033 38.0629 48.087C38.0629 45.557 40.1219 43.499 42.6509 43.499C45.1799 43.499 47.2389 45.557 47.2389 48.087C47.2373 49.3033 46.7534 50.4692 45.8933 51.3291C45.0332 52.189 43.8672 52.6727 42.6509 52.674ZM42.6509 44.499C41.6995 44.4996 40.7872 44.8777 40.1144 45.5505C39.4416 46.2233 39.0635 47.1356 39.0629 48.087C39.0637 49.0383 39.442 49.9503 40.1148 50.6229C40.7875 51.2954 41.6997 51.6735 42.6509 51.674C43.6021 51.6732 44.5141 51.2951 45.1868 50.6226C45.8595 49.9501 46.2379 49.0382 46.2389 48.087C46.2384 47.1356 45.8602 46.2233 45.1874 45.5505C44.5147 44.8777 43.6024 44.4996 42.6509 44.499ZM46.5009 67.5C46.3952 67.5002 46.2922 67.4666 46.2069 67.404L42.5009 64.709L38.7949 67.404C38.795 67.4896 38.7731 67.5737 38.7314 67.6484C38.6896 67.7231 38.6294 67.7858 38.5565 67.8306C38.4836 67.8753 38.4004 67.9006 38.3149 67.9041C38.2294 67.9075 38.1444 67.8889 38.0682 67.8501C37.9919 67.8113 37.9269 67.7536 37.8793 67.6824C37.8318 67.6113 37.8032 67.5292 37.7965 67.4439C37.7897 67.3586 37.805 67.273 37.8408 67.1953C37.8766 67.1176 37.9317 67.0503 38.0009 67V56C38.0009 55.725 38.2259 55.5 38.5009 55.5C38.7759 55.5 39.0009 55.725 39.0009 56V66.018L42.2069 63.686C42.2924 63.6241 42.3953 63.5907 42.5009 63.5907C42.6065 63.5907 42.7094 63.6241 42.7949 63.686L46.0009 66.018V56C46.0009 55.725 46.2259 55.5 46.5009 55.5C46.7759 55.5 47.0009 55.725 47.0009 56V67C47.0009 67.1326 46.9482 67.2598 46.8545 67.3536C46.7607 67.4473 46.6335 67.5 46.5009 67.5Z" fill="#CB11AB"/>
<path d="M53 61H47C46.725 61 46.5 60.775 46.5 60.5C46.5 60.225 46.725 60 47 60H53C54.299 60 55 58.454 55 57V12C55 10.636 54.363 10 53 10H17C15.546 10 14 10.701 14 12V57C14 58.374 15.626 60 17 60H38C38.275 60 38.5 60.225 38.5 60.5C38.5 60.775 38.275 61 38 61H17C15.056 61 13 58.943 13 57V12C13 10.051 15.061 9 17 9H53C54.936 9 56 10.065 56 12V57C56 58.939 54.949 61 53 61Z" fill="#CB11AB"/>
<path d="M42.742 57.4321C42.6179 57.4321 42.4982 57.3862 42.406 57.3031L40.745 55.7991L38.553 56.2701C38.4321 56.2969 38.3055 56.2775 38.1982 56.2157C38.0908 56.1539 38.0105 56.0542 37.973 55.9361L37.285 53.8011L35.151 53.1121C35.0329 53.075 34.9329 52.995 34.8709 52.8878C34.8089 52.7806 34.7893 52.654 34.816 52.5331L35.287 50.3421L33.784 48.6781C33.7011 48.5862 33.6552 48.4669 33.6552 48.3431C33.6552 48.2194 33.7011 48.1 33.784 48.0081L35.287 46.3451L34.816 44.1541C34.7895 44.0331 34.8091 43.9065 34.8711 43.7992C34.9331 43.6919 35.0329 43.6116 35.151 43.5741L37.285 42.8861L37.973 40.7521C38.0113 40.6345 38.0917 40.5351 38.1987 40.4731C38.3057 40.4111 38.4319 40.3908 38.553 40.4161L40.745 40.8881L42.406 39.3851C42.4978 39.3012 42.6176 39.2547 42.742 39.2547C42.8664 39.2547 42.9862 39.3012 43.078 39.3851L44.74 40.8881L46.933 40.4161C47.0541 40.3904 47.1805 40.4105 47.2876 40.4725C47.3948 40.5346 47.4751 40.6342 47.513 40.7521L48.201 42.8861L50.334 43.5741C50.579 43.6521 50.725 43.9041 50.669 44.1541L50.198 46.3451L51.702 48.0081C51.7856 48.0997 51.8319 48.2192 51.8319 48.3431C51.8319 48.4671 51.7856 48.5866 51.702 48.6781L50.198 50.3421L50.669 52.5331C50.6959 52.6541 50.6765 52.7807 50.6144 52.8879C50.5524 52.9952 50.4523 53.0752 50.334 53.1121L48.201 53.8011L47.513 55.9361C47.4743 56.0538 47.3934 56.153 47.286 56.2147C47.1786 56.2763 47.0521 56.2961 46.931 56.2701L44.74 55.7991L43.078 57.3031C42.9857 57.386 42.8661 57.4319 42.742 57.4321ZM40.891 54.7561C41.014 54.7561 41.133 54.8011 41.227 54.8851L42.744 56.2581L44.263 54.8851C44.3217 54.8326 44.3919 54.7946 44.468 54.7742C44.5441 54.7539 44.6239 54.7518 44.701 54.7681L46.703 55.1991L47.33 53.2521C47.3546 53.1769 47.3967 53.1085 47.4528 53.0527C47.509 52.9969 47.5776 52.9552 47.653 52.9311L49.598 52.3011L49.168 50.3011C49.1513 50.2238 49.1532 50.1435 49.1735 50.067C49.1939 49.9905 49.2321 49.92 49.285 49.8611L50.658 48.3431L49.285 46.8261C49.232 46.7671 49.1938 46.6963 49.1735 46.6197C49.1532 46.543 49.1513 46.4626 49.168 46.3851L49.598 44.3851L47.653 43.7561C47.5776 43.732 47.509 43.6903 47.4528 43.6345C47.3967 43.5787 47.3546 43.5104 47.33 43.4351L46.703 41.4881L44.7 41.9171C44.6229 41.9332 44.543 41.9309 44.4669 41.9104C44.3908 41.8899 44.3206 41.8518 44.262 41.7991L42.743 40.4281L41.226 41.7991C41.167 41.8518 41.0964 41.8899 41.02 41.9104C40.9436 41.9309 40.8635 41.9332 40.786 41.9171L38.785 41.4861L38.156 43.4331C38.1313 43.5082 38.0893 43.5763 38.0333 43.6321C37.9774 43.6878 37.9091 43.7297 37.834 43.7541L35.889 44.3831L36.319 46.3831C36.3355 46.4607 36.3335 46.541 36.3131 46.6176C36.2928 46.6942 36.2547 46.765 36.202 46.8241L34.829 48.3411L36.202 49.8591C36.309 49.9801 36.352 50.1421 36.319 50.2991L35.889 52.2991L37.834 52.9291C37.9091 52.9536 37.9774 52.9954 38.0333 53.0512C38.0893 53.1069 38.1313 53.1751 38.156 53.2501L38.785 55.1971L40.786 54.7661C40.8206 54.7597 40.8558 54.7564 40.891 54.7561ZM21 18.4741H51V19.4741H21V18.4741ZM21 24.4741H51V25.4741H21V24.4741ZM37 30.5581H51V31.5581H37V30.5581Z" fill="#CB11AB"/>
</svg>
