<svg width="70" height="70" viewBox="0 0 70 70" fill="none" xmlns="http://www.w3.org/2000/svg">
<path d="M16.178 60.951C15.496 60.9524 14.8204 60.819 14.1901 60.5585C13.5597 60.298 12.9871 59.9155 12.505 59.433C11.5324 58.457 10.9863 57.1353 10.9863 55.7575C10.9863 54.3796 11.5324 53.058 12.505 52.082L27.418 37.165C27.5123 37.0739 27.6386 37.0235 27.7697 37.0247C27.9008 37.0258 28.0262 37.0784 28.1189 37.1711C28.2116 37.2638 28.2642 37.3892 28.2654 37.5203C28.2665 37.6514 28.2161 37.7777 28.125 37.872L13.212 52.791C12.4267 53.5791 11.9858 54.6464 11.9858 55.759C11.9858 56.8716 12.4267 57.9388 13.212 58.727C14 59.5119 15.0668 59.9526 16.179 59.9526C17.2912 59.9526 18.3581 59.5119 19.146 58.727L34.043 43.774C34.1373 43.6829 34.2636 43.6325 34.3947 43.6337C34.5258 43.6348 34.6512 43.6874 34.7439 43.7801C34.8366 43.8728 34.8892 43.9982 34.8904 44.1293C34.8915 44.2604 34.8411 44.3867 34.75 44.481L19.853 59.434C19.3702 59.916 18.7971 60.298 18.1666 60.5583C17.536 60.8186 16.8602 60.9521 16.178 60.951ZM16.697 56.617C16.366 56.617 16.056 56.49 15.822 56.256C15.5905 56.0237 15.4603 55.7092 15.4602 55.3812C15.46 55.0532 15.5897 54.7385 15.821 54.506C16.0534 54.2746 16.368 54.1446 16.696 54.1446C17.024 54.1446 17.3386 54.2746 17.571 54.506C17.804 54.74 17.933 55.051 17.933 55.381C17.9334 55.5434 17.9017 55.7043 17.8398 55.8545C17.7778 56.0046 17.6867 56.141 17.5719 56.2559C17.457 56.3707 17.3206 56.4617 17.1705 56.5237C17.0204 56.5857 16.8595 56.6174 16.697 56.617ZM16.696 55.145C16.6494 55.1455 16.604 55.1596 16.5654 55.1857C16.5268 55.2118 16.4967 55.2486 16.4788 55.2916C16.4609 55.3346 16.4561 55.3819 16.4648 55.4277C16.4736 55.4734 16.4955 55.5156 16.528 55.549C16.646 55.668 16.742 55.67 16.862 55.549H16.863C16.9074 55.5042 16.9321 55.4438 16.9319 55.3808C16.9318 55.3178 16.9066 55.2575 16.862 55.213C16.8402 55.1913 16.8143 55.1741 16.7858 55.1625C16.7573 55.1508 16.7268 55.1449 16.696 55.145ZM39.828 34.781C39.7292 34.781 39.6326 34.7517 39.5504 34.6968C39.4683 34.6419 39.4042 34.5639 39.3663 34.4726C39.3284 34.3814 39.3185 34.2809 39.3376 34.184C39.3568 34.0871 39.4043 33.998 39.474 33.928L49.773 23.672C49.8666 23.5786 49.9934 23.5262 50.1255 23.5262C50.2577 23.5262 50.3845 23.5786 50.478 23.672L51.332 24.524L58.613 15.51L56.426 13.323L47.41 20.605L48.264 21.458C48.3106 21.5044 48.3475 21.5596 48.3727 21.6204C48.3979 21.6811 48.4109 21.7462 48.4109 21.812C48.4109 21.8778 48.3979 21.9429 48.3727 22.0036C48.3475 22.0644 48.3106 22.1195 48.264 22.166L38.004 32.392C37.9101 32.4857 37.7829 32.5384 37.6502 32.5383C37.5175 32.5382 37.3903 32.4854 37.2965 32.3915C37.2028 32.2976 37.1502 32.1703 37.1503 32.0376C37.1503 31.905 37.2031 31.7777 37.297 31.684L47.205 21.812L46.312 20.92C46.2621 20.8705 46.2232 20.811 46.1979 20.7455C46.1727 20.6799 46.1615 20.6097 46.1653 20.5395C46.1691 20.4693 46.1877 20.4008 46.2199 20.3383C46.252 20.2758 46.2971 20.2208 46.352 20.177L56.149 12.263C56.2452 12.1854 56.3666 12.1462 56.4899 12.1528C56.6133 12.1595 56.7298 12.2115 56.817 12.299L59.639 15.121C59.7265 15.2082 59.7786 15.3249 59.785 15.4483C59.7915 15.5717 59.7519 15.6931 59.674 15.789L51.76 25.585C51.7158 25.6392 51.6607 25.6835 51.5983 25.7151C51.5359 25.7467 51.4675 25.765 51.3977 25.7687C51.3278 25.7723 51.2579 25.7614 51.1926 25.7364C51.1272 25.7115 51.0677 25.6732 51.018 25.624L50.126 24.732L40.182 34.634C40.1356 34.6806 40.0804 34.7175 40.0197 34.7428C39.9589 34.768 39.8938 34.781 39.828 34.781Z" fill="#CB11AB"/>
<path d="M17.4296 9.51611L31.3086 13.7861L32.0766 27.7041L56.9196 52.5481C57.7906 53.4199 58.2799 54.6018 58.2799 55.8341C58.2799 57.0664 57.7906 58.2484 56.9196 59.1201C56.489 59.552 55.9773 59.8945 55.4139 60.1279C54.8505 60.3613 54.2465 60.481 53.6366 60.4801C53.0259 60.481 52.4209 60.3613 51.8565 60.1279C51.2922 59.8945 50.7794 59.5521 50.3476 59.1201L25.2966 34.0701L11.7996 33.4051L7.3146 19.6311L7.6246 19.3201L14.9276 26.6221L19.2656 22.2871L20.0846 21.4651L24.4216 17.1291L17.1176 9.82611L17.4296 9.51611ZM17.4296 8.51611C17.2985 8.51603 17.1687 8.54178 17.0476 8.59188C16.9264 8.64198 16.8163 8.71546 16.7236 8.80811L16.4116 9.11911C16.3183 9.21179 16.2443 9.32198 16.1937 9.44336C16.1431 9.56474 16.1171 9.69492 16.117 9.82641C16.1169 9.9579 16.1428 10.0881 16.1932 10.2096C16.2436 10.331 16.3174 10.4413 16.4106 10.5341L23.0066 17.1301L19.3776 20.7591L18.5576 21.5821L14.9276 25.2091L8.3316 18.6141C8.23891 18.521 8.12874 18.4471 8.00742 18.3966C7.88609 18.3462 7.756 18.3202 7.6246 18.3201H7.6236C7.49204 18.3201 7.36178 18.346 7.24028 18.3965C7.11878 18.4469 7.00844 18.5209 6.9156 18.6141L6.6056 18.9251C6.47573 19.0556 6.38442 19.2195 6.34172 19.3985C6.29902 19.5776 6.30659 19.765 6.3636 19.9401L10.8476 33.7121C10.9756 34.1071 11.3346 34.3821 11.7486 34.4011L24.8596 35.0491L49.6366 59.8261C50.1602 60.3523 50.783 60.7694 51.4689 61.0533C52.1549 61.3373 52.8903 61.4823 53.6326 61.4801C55.1426 61.4801 56.5586 60.8921 57.6246 59.8261C58.6812 58.7658 59.2744 57.33 59.2744 55.8331C59.2744 54.3363 58.6812 52.9004 57.6246 51.8401L33.0536 27.2681L32.3066 13.7311C32.2953 13.527 32.2216 13.3312 32.0956 13.1703C31.9695 13.0094 31.7971 12.891 31.6016 12.8311L17.7226 8.56111C17.6278 8.53139 17.529 8.51622 17.4296 8.51611Z" fill="#CB11AB"/>
<path d="M52.9988 56.617C52.6688 56.617 52.3578 56.49 52.1238 56.256C51.8931 56.0232 51.7637 55.7088 51.7637 55.381C51.7637 55.0533 51.8931 54.7388 52.1238 54.506C52.5928 54.039 53.4068 54.039 53.8738 54.506C54.0466 54.6791 54.1642 54.8994 54.2118 55.1393C54.2594 55.3792 54.2348 55.6278 54.1412 55.8537C54.0475 56.0796 53.889 56.2726 53.6857 56.4085C53.4824 56.5444 53.2434 56.6169 52.9988 56.617ZM52.9988 55.145C52.9356 55.146 52.8752 55.171 52.8298 55.215C52.7861 55.2597 52.7617 55.3197 52.7619 55.3822C52.7621 55.4447 52.7868 55.5046 52.8308 55.549C52.9488 55.668 53.0448 55.67 53.1648 55.549C53.2278 55.488 53.2348 55.418 53.2348 55.381C53.2348 55.344 53.2248 55.274 53.1658 55.213C53.1213 55.1692 53.0613 55.1448 52.9988 55.145Z" fill="#CB11AB"/>
</svg>
